<svg xmlns="http://www.w3.org/2000/svg" xmlns:xlink="http://www.w3.org/1999/xlink" width="152" height="45" viewBox="0 0 152 45">
    <defs>
        <path id="a" d="M76 0h76v45H0V0z"/>
    </defs>
    <g fill="none" fill-rule="evenodd">
        <g>
            <mask id="b" fill="#fff">
                <use xlink:href="#a"/>
            </mask>
            <path fill="#A6A6A6" d="M146.593 45H5.325A5.334 5.334 0 0 1 0 39.675V5.317C0 2.385 2.39 0 5.325 0h141.268C149.526 0 152 2.385 152 5.317v34.358c0 2.931-2.474 5.325-5.407 5.325" mask="url(#b)"/>
        </g>
        <path fill="#000" d="M150.91 39.676a4.31 4.31 0 0 1-4.316 4.309H5.324a4.316 4.316 0 0 1-4.322-4.309V5.316a4.32 4.32 0 0 1 4.323-4.314h141.267a4.314 4.314 0 0 1 4.317 4.314l.001 34.36z"/>
        <path fill="#FFF" d="M33.922 22.257c-.033-3.626 2.971-5.39 3.108-5.472-1.7-2.478-4.338-2.817-5.264-2.844-2.215-.233-4.363 1.324-5.492 1.324-1.15 0-2.888-1.301-4.76-1.263-2.41.037-4.664 1.431-5.9 3.595-2.551 4.414-.648 10.9 1.796 14.467 1.223 1.747 2.652 3.698 4.522 3.628 1.83-.074 2.513-1.164 4.72-1.164 2.188 0 2.83 1.164 4.738 1.121 1.963-.031 3.2-1.755 4.38-3.519 1.412-2.001 1.98-3.973 2.002-4.075-.046-.015-3.813-1.452-3.85-5.798M30.32 11.594c.983-1.23 1.657-2.902 1.47-4.6-1.425.063-3.206.985-4.232 2.187-.907 1.06-1.718 2.797-1.508 4.43 1.6.12 3.242-.806 4.27-2.017M56.02 29.2l-1.266-3.91c-.134-.4-.385-1.34-.756-2.82h-.045c-.147.636-.385 1.577-.711 2.82l-1.245 3.91h4.023zm4.38 6.242h-2.557l-1.4-4.398h-4.869l-1.334 4.398h-2.49l4.824-14.971h2.98L60.4 35.442zM70.36 30c0-1.052-.237-1.918-.712-2.6-.52-.71-1.216-1.066-2.09-1.066-.592 0-1.13.198-1.611.588a2.729 2.729 0 0 0-.945 1.545c-.074.297-.111.54-.111.731v1.8c0 .785.24 1.448.723 1.99.481.54 1.107.81 1.878.81.904 0 1.607-.348 2.11-1.044.505-.696.757-1.614.757-2.755m2.446-.087c0 1.835-.497 3.287-1.49 4.352-.89.948-1.994 1.422-3.312 1.422-1.423 0-2.446-.51-3.068-1.532h-.045v5.687h-2.4V28.2c0-1.155-.031-2.34-.09-3.555h2.111l.134 1.712h.045c.8-1.29 2.016-1.933 3.646-1.933 1.275 0 2.339.503 3.19 1.51.853 1.008 1.279 2.333 1.279 3.977M82.786 30c0-1.052-.237-1.918-.714-2.6-.519-.71-1.212-1.066-2.087-1.066-.594 0-1.13.198-1.612.588-.483.394-.796.908-.945 1.545-.072.297-.11.54-.11.731v1.8c0 .785.24 1.448.72 1.99.482.54 1.108.81 1.88.81.905 0 1.608-.348 2.112-1.044.503-.696.756-1.614.756-2.755m2.446-.087c0 1.835-.498 3.287-1.49 4.352-.89.948-1.994 1.422-3.313 1.422-1.422 0-2.446-.51-3.066-1.532h-.045v5.687h-2.4V28.2c0-1.155-.031-2.34-.09-3.555h2.111l.134 1.712h.045c.8-1.29 2.015-1.933 3.646-1.933 1.274 0 2.336.503 3.191 1.51.85 1.008 1.277 2.333 1.277 3.977M99.126 31.244c0 1.274-.443 2.31-1.331 3.11-.977.874-2.336 1.31-4.082 1.31-1.612 0-2.905-.311-3.883-.932l.556-2a6.575 6.575 0 0 0 3.47.957c.904 0 1.608-.206 2.114-.612.503-.408.754-.955.754-1.636 0-.608-.207-1.12-.624-1.535-.412-.416-1.102-.8-2.066-1.158-2.624-.978-3.934-2.409-3.934-4.292 0-1.23.46-2.24 1.38-3.026.915-.786 2.139-1.178 3.668-1.178 1.363 0 2.496.236 3.4.71l-.6 1.956c-.845-.46-1.8-.69-2.868-.69-.844 0-1.504.208-1.977.624-.4.37-.6.82-.6 1.354 0 .593.228 1.081.688 1.467.4.354 1.126.74 2.18 1.154 1.289.519 2.236 1.125 2.845 1.82.606.695.91 1.56.91 2.597M107.062 26.446h-2.646v5.242c0 1.333.466 2 1.402 2 .428 0 .783-.038 1.065-.113l.066 1.822c-.473.176-1.095.265-1.866.265-.948 0-1.69-.288-2.223-.866-.534-.578-.802-1.548-.802-2.91v-5.442h-1.576v-1.8h1.576v-1.977l2.358-.71v2.687h2.646v1.802zM116.51 30.033c0-.996-.213-1.85-.644-2.561-.504-.862-1.223-1.292-2.155-1.292-.966 0-1.698.431-2.201 1.292-.431.712-.645 1.58-.645 2.606 0 .996.214 1.85.645 2.56.52.863 1.243 1.292 2.179 1.292.917 0 1.636-.44 2.155-1.314.443-.726.665-1.588.665-2.583m2.492-.077c0 1.658-.476 3.021-1.424 4.086-.995 1.098-2.313 1.643-3.958 1.643-1.587 0-2.849-.524-3.79-1.575-.941-1.052-1.412-2.377-1.412-3.975 0-1.673.484-3.044 1.456-4.11.97-1.067 2.279-1.599 3.924-1.599 1.584 0 2.86.525 3.822 1.578.922 1.02 1.382 2.337 1.382 3.952M126.803 26.756a4.179 4.179 0 0 0-.757-.067c-.844 0-1.497.32-1.956.957-.4.562-.6 1.273-.6 2.132v5.664h-2.4l.023-7.397c0-1.243-.03-2.376-.09-3.397h2.09l.088 2.065h.067c.253-.71.652-1.281 1.2-1.71a2.91 2.91 0 0 1 1.735-.578c.222 0 .422.015.6.044v2.287zM135.25 28.912c.015-.711-.141-1.326-.467-1.845-.415-.666-1.053-1-1.912-1-.785 0-1.424.326-1.911.978-.4.519-.637 1.14-.71 1.865h5v.002zm2.289.622c0 .43-.029.792-.088 1.088h-7.202c.029 1.066.376 1.88 1.045 2.443.607.504 1.392.756 2.356.756 1.066 0 2.039-.17 2.914-.51l.376 1.664c-1.023.446-2.23.666-3.622.666-1.676 0-2.99-.491-3.948-1.476-.955-.984-1.433-2.306-1.433-3.964 0-1.628.444-2.984 1.335-4.065.932-1.154 2.192-1.731 3.778-1.731 1.557 0 2.736.577 3.536 1.731.634.917.953 2.05.953 3.398zM48.892 8.182c.256-.153.544-.281.868-.387a3.681 3.681 0 0 1 1.142-.159c.706 0 1.262.168 1.67.502.407.334.61.785.61 1.354 0 .45-.135.829-.408 1.135-.272.306-.621.51-1.044.61v.033c.234.037.454.1.661.191.209.092.391.213.546.366a1.654 1.654 0 0 1 .508 1.213c0 .407-.082.749-.246 1.026a2.06 2.06 0 0 1-.644.677c-.265.174-.562.3-.89.376a4.374 4.374 0 0 1-.983.115c-.35 0-.696-.038-1.038-.11a3.226 3.226 0 0 1-.95-.36l.295-.905c.189.094.433.185.732.273.298.088.6.13.906.13.502 0 .89-.112 1.163-.337.273-.226.41-.527.41-.905 0-.256-.055-.464-.164-.628a1.198 1.198 0 0 0-.427-.388 1.864 1.864 0 0 0-.585-.196 3.864 3.864 0 0 0-.638-.055h-.492v-.897h.492c.225 0 .435-.028.628-.088.193-.057.36-.14.503-.245.141-.106.253-.232.333-.377.079-.145.12-.31.12-.491 0-.328-.118-.584-.351-.77-.233-.185-.546-.279-.939-.279-.27 0-.54.044-.808.13-.27.088-.51.183-.722.284l-.258-.838zM58.109 12.472c-.659 0-1.15.083-1.472.25-.322.168-.483.442-.483.82 0 .276.076.483.228.622a.824.824 0 0 0 .576.207 1.182 1.182 0 0 0 .797-.306c.106-.095.19-.21.257-.345a.973.973 0 0 0 .097-.43v-.818zm.163 2.64l-.087-.61h-.032c-.356.486-.873.73-1.55.73-.242 0-.459-.04-.656-.12a1.616 1.616 0 0 1-.513-.327 1.445 1.445 0 0 1-.34-.492 1.583 1.583 0 0 1-.119-.622c0-.662.27-1.159.809-1.49.54-.33 1.303-.496 2.293-.496v-.098c0-.698-.367-1.047-1.1-1.047a2.47 2.47 0 0 0-1.385.393l-.24-.774c.488-.305 1.095-.458 1.821-.458 1.389 0 2.083.731 2.083 2.194v1.953c0 .545.026.967.077 1.265h-1.06v-.001zM64.947 9.81v.97H62.74v4.332h-1.179V9.81zM70.495 12.44c0-.263-.031-.505-.093-.726a1.66 1.66 0 0 0-.273-.567 1.331 1.331 0 0 0-.437-.372 1.202 1.202 0 0 0-.574-.136c-.167 0-.33.037-.492.11-.16.071-.3.17-.42.294-.12.124-.216.273-.29.448-.072.174-.11.36-.11.557v.884c0 .196.03.378.094.546.062.167.148.312.261.436.113.124.248.22.404.29.157.069.33.103.518.103.445 0 .79-.169 1.038-.508.248-.338.374-.793.374-1.36m1.2-.044c0 .422-.058.808-.174 1.157-.117.35-.278.648-.487.894a2.193 2.193 0 0 1-.742.578 2.177 2.177 0 0 1-.955.209c-.7 0-1.202-.251-1.508-.753h-.023v2.793h-1.18v-5.718c0-.284-.003-.57-.01-.857a43.5 43.5 0 0 0-.032-.89h1.037l.066.84h.023c.393-.632.99-.95 1.79-.95.313 0 .603.066.869.196.266.132.497.315.694.552.197.236.35.52.463.851.113.332.17.698.17 1.098M78.032 9.81l-1.343 3.677c-.321.873-.633 1.587-.934 2.144-.304.557-.592.962-.868 1.217-.408.364-.842.586-1.301.665l-.284-.992c.305-.08.597-.236.874-.47.276-.232.497-.522.666-.872a.668.668 0 0 0 .087-.24c0-.044-.023-.127-.064-.25L72.942 9.81h1.298l1.005 2.958c.052.138.103.295.153.469.053.174.106.368.165.578h.022c.036-.117.078-.263.12-.442.044-.178.102-.384.174-.616l.898-2.947h1.255zM80.075 12.013h.544c.4 0 .711-.072.929-.218.217-.147.327-.324.327-.536a.607.607 0 0 0-.279-.523c-.185-.13-.443-.197-.77-.197-.212 0-.425.035-.637.104-.215.07-.415.155-.596.256l-.305-.763c.305-.166.609-.28.913-.343a4.51 4.51 0 0 1 .91-.093c.243 0 .485.024.727.07.243.048.46.128.65.24.189.113.345.26.464.443.12.182.18.407.18.677a.941.941 0 0 1-.1.442c-.064.127-.151.24-.26.337a1.431 1.431 0 0 1-.365.24 1.964 1.964 0 0 1-.41.137v.033c.174.022.344.066.509.132.163.065.31.15.442.256.13.106.236.233.317.381.078.15.118.319.118.508 0 .313-.075.575-.23.785a1.63 1.63 0 0 1-.584.502 2.835 2.835 0 0 1-.782.268 4.426 4.426 0 0 1-1.799-.022c-.32-.07-.609-.176-.865-.322l.308-.775c.189.103.404.188.648.257.245.068.492.103.748.103.399 0 .708-.077.923-.234.213-.156.32-.35.32-.584a.66.66 0 0 0-.107-.387.8.8 0 0 0-.305-.256 1.498 1.498 0 0 0-.46-.136 3.88 3.88 0 0 0-.567-.038h-.556v-.744zM86.375 9.81v1.876c0 .43-.007.815-.022 1.156-.016.342-.033.702-.054 1.08l.021.021.409-.813c.137-.265.272-.537.41-.813l1.311-2.51h1.528v5.303h-1.115v-1.876c0-.393.012-.786.029-1.178.018-.394.038-.79.06-1.19h-.056c-.123.327-.245.61-.371.851-.123.24-.247.487-.37.743-.226.436-.45.873-.673 1.31-.222.436-.457.883-.704 1.341H85.25V9.81h1.125zM96.205 9.81v.97h-1.617v4.332H93.43V10.78h-1.607v-.97zM101.096 11.905c0-.415-.1-.752-.3-1.01-.2-.257-.49-.387-.868-.387-.343 0-.632.13-.872.392s-.379.596-.416 1.005h2.456zm1.126.305c0 .1-.005.198-.011.289a1.97 1.97 0 0 1-.033.245h-3.539c.016.502.173.89.475 1.162.302.272.702.41 1.196.41.517 0 .994-.084 1.431-.251l.185.819c-.504.218-1.096.327-1.782.327a3.06 3.06 0 0 1-1.112-.191 2.301 2.301 0 0 1-.83-.54 2.37 2.37 0 0 1-.52-.84 3.224 3.224 0 0 1-.178-1.102c0-.407.06-.784.178-1.13.12-.345.29-.645.508-.9.22-.255.484-.454.791-.6a2.406 2.406 0 0 1 1.034-.218c.334 0 .636.06.913.18.273.119.506.29.697.513.194.221.34.488.443.796.103.308.154.653.154 1.03zM108.109 14.316c.146.014.268.024.365.032a4.454 4.454 0 0 0 .836-.021 1.63 1.63 0 0 0 .46-.125.853.853 0 0 0 .333-.25.652.652 0 0 0 .127-.417c0-.304-.136-.513-.405-.629-.27-.116-.632-.173-1.093-.173h-.623v1.583zm0-2.346h.6c.182 0 .357-.012.519-.038.165-.025.308-.065.431-.12a.74.74 0 0 0 .292-.218.543.543 0 0 0 .103-.333.56.56 0 0 0-.303-.528c-.2-.113-.514-.17-.943-.17-.122 0-.23.004-.323.012l-.376.033v1.362zm-1.135-2.117c.213-.036.48-.065.807-.088.328-.022.663-.033 1.007-.033.217 0 .464.014.736.039.271.024.534.083.78.174.25.091.455.227.622.41.168.182.254.428.254.741a1.03 1.03 0 0 1-.324.764 1.294 1.294 0 0 1-.338.234c-.128.062-.26.108-.4.136l.013.033c.385.065.698.203.939.415.24.211.36.501.36.873 0 .371-.105.666-.305.884a1.932 1.932 0 0 1-.754.492 3.7 3.7 0 0 1-.947.208c-.33.028-.627.044-.887.044-.294 0-.58-.007-.86-.023-.281-.015-.514-.03-.703-.044v-5.26z"/>
    </g>
</svg>
