<svg xmlns="http://www.w3.org/2000/svg" width="39" height="52" viewBox="0 0 39 52">
    <g fill="none" fill-rule="evenodd">
        <path fill="#FCE3CC" d="M26 9.917L25.23 13 21 12.083 21.77 9l4.23.917z"/>
        <path fill="#333C4E" d="M21 10a5 5 0 0 1 5 5v13H16V15a5 5 0 0 1 5-5z"/>
        <path fill="#AEB4C0" d="M25 19.825l-3.797 3.761-.058.055a1.355 1.355 0 0 1-.825.357l-.075.002H14v-3.653h5.705L23.085 17 25 19.825z"/>
        <path fill="#D3D8E6" d="M31.107 35.657l.075.113a2.619 2.619 0 0 1 .32.753c.012.044.02.09.03.135L34 48.91 29.41 50l-2.357-11.701L22 31.09 25.74 28l5.367 7.657z"/>
        <path fill="#333C4E" d="M28.906 48.318l5.986-.419a3 3 0 0 1 3.202 2.783l-8.978.628-.21-2.992z"/>
        <path fill="#D3D8E6" d="M16 32h10v-4H16z"/>
        <path fill="#D3D8E6" d="M23 29.987l-4.274 7.58-.04.098c-.014.032-.028.065-.044.097a2.261 2.261 0 0 1-.286.447c-.022.027-.046.054-.07.08L11.327 46 8 42.962l6.673-7.39L17.505 28c1.402.53 4.094 1.457 5.495 1.987z"/>
        <path fill="#333C4E" d="M8.379 42.257L12.62 46.5a3 3 0 0 1 0 4.243l-6.364-6.364 2.122-2.122z"/>
        <path fill="#FCE3CC" d="M20 4h9v2.5a4.5 4.5 0 1 1-9 0V4z"/>
        <path fill="#333C4E" d="M29 5h-9v-.5a4.5 4.5 0 1 1 9 0V5z"/>
        <path fill="#333C4E" d="M20 4.875h11V4H20z"/>
        <path fill="#AEB4C0" d="M29.918 21.24l3.825 1.17 2.34-7.65-3.826-1.17z"/>
        <path fill="#FCE3CC" d="M22.1 12.003c.085.008.107.008.192.02.096.016.19.037.283.065a1.994 1.994 0 0 1 1.057.76c.018.025.034.051.051.077l3.923 6.358h6.419l.097.002.097.007a2.102 2.102 0 0 1 .821.255c.167.094.318.211.448.346.174.18.31.393.397.622a1.762 1.762 0 0 1-.035 1.338c-.087.196-.21.379-.362.537-.173.18-.385.327-.619.432a2.07 2.07 0 0 1-.747.176l-.097.002h-7.556c-.084-.002-.105 0-.188-.008a2.016 2.016 0 0 1-1.24-.565 1.893 1.893 0 0 1-.179-.204c-.048-.064-.058-.082-.102-.148l-4.493-7.283-.047-.08a1.77 1.77 0 0 1-.177-1.241c.061-.269.186-.523.362-.74.197-.243.456-.437.75-.564a2.066 2.066 0 0 1 .75-.166l.098-.001.097.003z"/>
        <path fill="#AEB4C0" d="M8 6h4.522A3.478 3.478 0 0 1 16 9.478v19.044A3.478 3.478 0 0 1 12.522 32H3.478A3.478 3.478 0 0 1 0 28.522V14a8 8 0 0 1 8-8z"/>
    </g>
</svg>
