<?xml version="1.0" standalone="no"?><!-- Generator: Gravit.io --><svg xmlns="http://www.w3.org/2000/svg" xmlns:xlink="http://www.w3.org/1999/xlink" style="isolation:isolate" viewBox="0 0 135 40" width="152" height="45"><defs><clipPath id="_clipPath_lbjUrkxweSrynu8YLiDwJmnFkVAS3li3"><rect width="135" height="40"/></clipPath></defs><g clip-path="url(#_clipPath_lbjUrkxweSrynu8YLiDwJmnFkVAS3li3)"><path d="M 5 0 L 130 0 C 132.76 0 135 2.24 135 5 L 135 35 C 135 37.76 132.76 40 130 40 L 5 40 C 2.24 40 0 37.76 0 35 L 0 5 C 0 2.24 2.24 0 5 0 Z" style="stroke:none;fill:#000000;stroke-miterlimit:10;"/><path d=" M 130 0.8 C 132.32 0.8 134.2 2.68 134.2 5 L 134.2 35 C 134.2 37.32 132.32 39.2 130 39.2 L 5 39.2 C 3.886 39.2 2.818 38.758 2.03 37.97 C 1.242 37.182 0.8 36.114 0.8 35 L 0.8 5 C 0.8 2.68 2.68 0.8 5 0.8 L 130 0.8 Z  M 130 0 L 5 0 C 2.239 0 0 2.239 0 5 L 0 35 C 0 37.761 2.239 40 5 40 L 130 40 C 132.761 40 135 37.761 135 35 L 135 5 C 135 2.239 132.761 0 130 0 Z " fill="rgb(166,166,166)"/><path d=" M 68.14 21.75 C 65.795 21.761 63.903 23.669 63.91 26.013 C 63.917 28.358 65.822 30.254 68.167 30.25 C 70.511 30.246 72.41 28.345 72.41 26 C 72.426 24.864 71.981 23.771 71.176 22.97 C 70.371 22.168 69.276 21.728 68.14 21.75 Z  M 68.14 28.58 C 67.083 28.654 66.089 28.074 65.632 27.118 C 65.175 26.163 65.349 25.025 66.071 24.249 C 66.792 23.473 67.915 23.218 68.901 23.604 C 69.888 23.991 70.537 24.941 70.54 26 C 70.573 26.663 70.336 27.31 69.884 27.796 C 69.432 28.282 68.803 28.565 68.14 28.58 Z  M 58.83 21.75 C 56.484 21.756 54.586 23.661 54.59 26.007 C 54.594 28.353 56.497 30.252 58.843 30.25 C 61.189 30.248 63.09 28.346 63.09 26 C 63.106 24.864 62.661 23.771 61.856 22.97 C 61.051 22.168 59.956 21.728 58.82 21.75 L 58.83 21.75 Z  M 58.83 28.58 C 57.773 28.658 56.775 28.081 56.315 27.126 C 55.855 26.171 56.027 25.031 56.747 24.254 C 57.468 23.476 58.591 23.218 59.578 23.604 C 60.566 23.989 61.217 24.94 61.22 26 C 61.253 26.663 61.016 27.31 60.564 27.796 C 60.112 28.282 59.483 28.565 58.82 28.58 L 58.83 28.58 Z  M 47.74 23.06 L 47.74 24.86 L 52.06 24.86 C 51.992 25.708 51.64 26.508 51.06 27.13 C 50.186 28.02 48.977 28.5 47.73 28.45 C 45.079 28.45 42.93 26.301 42.93 23.65 C 42.93 20.999 45.079 18.85 47.73 18.85 C 48.948 18.83 50.124 19.294 51 20.14 L 52.27 18.87 C 51.075 17.66 49.441 16.985 47.74 17 C 45.319 16.906 43.04 18.144 41.802 20.226 C 40.563 22.308 40.563 24.902 41.802 26.984 C 43.04 29.066 45.319 30.304 47.74 30.21 C 49.472 30.288 51.153 29.614 52.35 28.36 C 53.398 27.209 53.957 25.696 53.91 24.14 C 53.913 23.761 53.88 23.383 53.81 23.01 L 47.74 23.06 Z  M 93.05 24.46 C 92.516 22.889 91.068 21.811 89.41 21.75 C 88.304 21.748 87.247 22.203 86.489 23.009 C 85.732 23.814 85.341 24.897 85.41 26 C 85.385 27.129 85.821 28.22 86.617 29.022 C 87.413 29.823 88.501 30.267 89.63 30.25 C 91.051 30.258 92.381 29.551 93.17 28.37 L 91.72 27.37 C 91.28 28.104 90.486 28.552 89.63 28.55 C 88.744 28.584 87.927 28.072 87.57 27.26 L 93.26 24.91 L 93.05 24.46 Z  M 87.25 25.88 C 87.209 25.255 87.421 24.64 87.839 24.174 C 88.257 23.707 88.844 23.428 89.47 23.4 C 90.129 23.357 90.751 23.711 91.05 24.3 L 87.25 25.88 Z  M 82.63 30 L 84.5 30 L 84.5 17.5 L 82.63 17.5 L 82.63 30 Z  M 79.57 22.7 L 79.5 22.7 C 78.93 22.063 78.115 21.699 77.26 21.7 C 74.99 21.81 73.206 23.682 73.206 25.955 C 73.206 28.228 74.99 30.1 77.26 30.21 C 78.118 30.224 78.938 29.858 79.5 29.21 L 79.56 29.21 L 79.56 29.82 C 79.56 31.45 78.69 32.32 77.29 32.32 C 76.336 32.298 75.491 31.701 75.15 30.81 L 73.52 31.49 C 74.148 33.017 75.639 34.01 77.29 34 C 79.48 34 81.29 32.71 81.29 29.57 L 81.29 22 L 79.57 22 L 79.57 22.7 Z  M 77.43 28.58 C 76.093 28.462 75.067 27.342 75.067 26 C 75.067 24.658 76.093 23.538 77.43 23.42 C 78.076 23.453 78.681 23.746 79.109 24.231 C 79.536 24.717 79.749 25.355 79.7 26 C 79.755 26.648 79.543 27.29 79.112 27.778 C 78.681 28.265 78.07 28.555 77.42 28.58 L 77.43 28.58 Z  M 101.81 17.5 L 97.34 17.5 L 97.34 30 L 99.21 30 L 99.21 25.26 L 101.82 25.26 C 103.273 25.364 104.662 24.649 105.42 23.405 C 106.178 22.161 106.178 20.599 105.42 19.355 C 104.662 18.111 103.273 17.396 101.82 17.5 L 101.81 17.5 Z  M 101.81 23.5 L 99.2 23.5 L 99.2 19.24 L 101.85 19.24 C 102.616 19.24 103.324 19.649 103.708 20.312 C 104.091 20.976 104.091 21.794 103.708 22.458 C 103.324 23.121 102.616 23.53 101.85 23.53 L 101.81 23.5 Z  M 113.34 21.7 C 111.949 21.617 110.641 22.367 110.01 23.61 L 111.67 24.3 C 112.004 23.684 112.671 23.323 113.37 23.38 C 113.85 23.324 114.331 23.463 114.708 23.766 C 115.084 24.068 115.322 24.51 115.37 24.99 L 115.37 25.12 C 114.769 24.802 114.1 24.637 113.42 24.64 C 111.63 24.64 109.82 25.64 109.82 27.45 C 109.856 28.23 110.205 28.962 110.789 29.48 C 111.373 29.998 112.142 30.258 112.92 30.2 C 113.879 30.269 114.8 29.809 115.32 29 L 115.38 29 L 115.38 30 L 117.18 30 L 117.18 25.19 C 117.18 23 115.52 21.73 113.39 21.73 L 113.34 21.7 Z  M 113.11 28.55 C 112.5 28.55 111.65 28.24 111.65 27.49 C 111.65 26.49 112.71 26.16 113.65 26.16 C 114.244 26.145 114.831 26.29 115.35 26.58 C 115.221 27.699 114.287 28.553 113.16 28.58 L 113.11 28.55 Z  M 123.74 22 L 121.6 27.42 L 121.54 27.42 L 119.32 22 L 117.32 22 L 120.65 29.58 L 118.75 33.79 L 120.7 33.79 L 125.82 22 L 123.74 22 Z  M 106.93 30 L 108.8 30 L 108.8 17.5 L 106.93 17.5 L 106.93 30 Z " fill="rgb(255,255,255)"/><linearGradient id="_lgradient_0" x1="-38.3517333479849%" y1="71.90742218675183%" x2="91.48842803787565%" y2="4.94812450119716%"><stop offset="0%" stop-opacity="1" style="stop-color:rgb(0,227,255)"/><stop offset="1%" stop-opacity="1" style="stop-color:rgb(0,223,255)"/><stop offset="26%" stop-opacity="1" style="stop-color:rgb(0,210,255)"/><stop offset="51%" stop-opacity="1" style="stop-color:rgb(0,190,255)"/><stop offset="76%" stop-opacity="1" style="stop-color:rgb(0,161,255)"/><stop offset="100%" stop-opacity="1" style="stop-color:rgb(0,160,255)"/></linearGradient><path d=" M 10.44 7.54 C 10.114 7.931 9.95 8.432 9.98 8.94 L 9.98 31.06 C 9.95 31.568 10.114 32.069 10.44 32.46 L 10.51 32.53 L 22.9 20.15 L 22.9 19.86 L 10.51 7.47 L 10.44 7.54 Z " fill="url(#_lgradient_0)"/><linearGradient id="_lgradient_1" x1="-130.64039408866995%" y1="49.99999999999996%" x2="107.68472906403946%" y2="49.99999999999996%"><stop offset="0%" stop-opacity="1" style="stop-color:rgb(255,156,0)"/><stop offset="41%" stop-opacity="1" style="stop-color:rgb(255,165,0)"/><stop offset="78%" stop-opacity="1" style="stop-color:rgb(255,189,0)"/><stop offset="100%" stop-opacity="1" style="stop-color:rgb(255,224,0)"/></linearGradient><path d=" M 27 24.28 L 22.9 20.15 L 22.9 19.86 L 27 15.72 L 27.09 15.77 L 32 18.56 C 33.4 19.35 33.4 20.65 32 21.45 L 27.11 24.23 L 27 24.28 Z " fill="url(#_lgradient_1)"/><linearGradient id="_lgradient_2" x1="-50.17985611510791%" y1="201.04333868378816%" x2="86.27098321342925%" y2="18.459069020866913%"><stop offset="0%" stop-opacity="1" style="stop-color:rgb(195,17,98)"/><stop offset="100%" stop-opacity="1" style="stop-color:rgb(255,58,68)"/></linearGradient><path d=" M 27.12 24.22 L 22.9 20 L 10.44 32.46 C 11.029 32.978 11.902 33.003 12.52 32.52 L 27.13 24.22" fill="url(#_lgradient_2)"/><linearGradient id="_lgradient_3" x1="-18.75374475733973%" y1="-54.05214737902953%" x2="42.121030557219896%" y2="24.91706641365157%"><stop offset="0%" stop-opacity="1" style="stop-color:rgb(50,160,113)"/><stop offset="7.000000000000001%" stop-opacity="1" style="stop-color:rgb(45,167,113)"/><stop offset="48%" stop-opacity="1" style="stop-color:rgb(21,207,116)"/><stop offset="80%" stop-opacity="1" style="stop-color:rgb(6,231,117)"/><stop offset="100%" stop-opacity="1" style="stop-color:rgb(0,240,118)"/></linearGradient><path d=" M 27.12 15.78 L 12.51 7.48 C 11.892 6.997 11.019 7.022 10.43 7.54 L 22.9 20 L 27.12 15.78 Z " fill="url(#_lgradient_3)"/><g opacity="0.2"><path d=" M 27 24.13 L 12.51 32.38 C 11.917 32.823 11.103 32.823 10.51 32.38 L 10.44 32.45 L 10.51 32.52 C 11.102 32.967 11.918 32.967 12.51 32.52 L 27.12 24.22 L 27 24.13 Z " fill="rgb(0,0,0)"/></g><g opacity="0.12"><path d=" M 10.44 32.32 C 10.114 31.929 9.95 31.428 9.98 30.92 L 9.98 31.07 C 9.95 31.578 10.114 32.079 10.44 32.47 L 10.51 32.4 L 10.44 32.32 Z  M 32 21.3 L 27 24.13 L 27.09 24.22 L 32 21.44 C 32.567 21.174 32.948 20.624 33 20 C 32.886 20.565 32.517 21.045 32 21.3 Z " fill="rgb(0,0,0)"/></g><g opacity="0.25"><path d=" M 12.51 7.62 L 32 18.7 C 32.517 18.955 32.886 19.435 33 20 C 32.948 19.376 32.567 18.826 32 18.56 L 12.51 7.48 C 11.11 6.69 9.97 7.35 9.97 8.95 L 9.97 9.1 C 10 7.49 11.12 6.83 12.51 7.62 Z " fill="rgb(255,255,255)"/></g><path d=" M 42.11 14.27 L 41.37 14.27 L 41.37 12.27 L 42 12.27 C 42.582 11.654 42.86 10.811 42.76 9.97 L 42.76 7 L 46.76 7 L 46.76 12.26 L 47.43 12.26 L 47.43 14.26 L 46.69 14.26 L 46.69 13 L 42.11 13 L 42.11 14.27 Z  M 43.5 10 C 43.547 10.807 43.348 11.608 42.93 12.3 L 45.93 12.3 L 45.93 7.74 L 43.5 7.74 L 43.5 10 Z  M 53.41 12.22 C 52.193 13.43 50.227 13.43 49.01 12.22 C 47.83 10.971 47.83 9.019 49.01 7.77 C 49.592 7.184 50.384 6.854 51.21 6.854 C 52.036 6.854 52.828 7.184 53.41 7.77 C 54.595 9.017 54.595 10.973 53.41 12.22 Z  M 49.58 11.72 C 50.481 12.618 51.939 12.618 52.84 11.72 C 53.725 10.744 53.725 9.256 52.84 8.28 C 51.939 7.382 50.481 7.382 49.58 8.28 C 48.695 9.256 48.695 10.744 49.58 11.72 Z  M 58.18 13.13 C 57.346 13.147 56.541 12.822 55.952 12.231 C 55.363 11.64 55.041 10.834 55.06 10 C 55.041 9.166 55.363 8.36 55.952 7.769 C 56.541 7.178 57.346 6.853 58.18 6.87 C 59.028 6.849 59.838 7.217 60.38 7.87 L 59.84 8.39 C 59.439 7.881 58.817 7.598 58.17 7.63 C 57.55 7.614 56.95 7.852 56.51 8.29 C 55.611 9.272 55.611 10.778 56.51 11.76 C 56.95 12.198 57.55 12.436 58.17 12.42 C 58.883 12.414 59.555 12.087 60 11.53 L 60.54 12.07 C 60.268 12.4 59.926 12.666 59.54 12.85 C 59.113 13.043 58.649 13.139 58.18 13.13 Z  M 63.68 13 L 62.91 13 L 62.91 7.74 L 61.23 7.74 L 61.23 7 L 65.35 7 L 65.35 7.74 L 63.68 7.74 L 63.68 13 Z  M 70.65 7 L 68.38 12.06 C 68.194 12.673 67.641 13.102 67 13.13 C 66.793 13.127 66.589 13.083 66.4 13 L 66.6 12.29 C 66.722 12.361 66.859 12.399 67 12.4 C 67.147 12.411 67.294 12.376 67.42 12.3 C 67.54 12.198 67.633 12.067 67.69 11.92 L 67.91 11.44 L 65.91 7.01 L 66.82 7.01 L 68.3 10.45 L 69.74 7 L 70.65 7 Z  M 71.52 13 L 71.52 7 L 75.86 7 L 75.86 13 L 75.09 13 L 75.09 7.74 L 72.29 7.74 L 72.29 13 L 71.52 13 Z  M 77.23 13 L 77.23 7 L 78 7 L 78 9.57 L 81 9.57 L 81 7 L 81.77 7 L 81.77 13 L 81 13 L 81 10.29 L 78 10.29 L 78 13 L 77.23 13 Z  M 88.06 12.22 C 86.843 13.43 84.877 13.43 83.66 12.22 C 82.48 10.971 82.48 9.019 83.66 7.77 C 84.242 7.184 85.034 6.854 85.86 6.854 C 86.686 6.854 87.478 7.184 88.06 7.77 C 89.245 9.017 89.245 10.973 88.06 12.22 Z  M 84.23 11.72 C 85.131 12.618 86.589 12.618 87.49 11.72 C 88.375 10.744 88.375 9.256 87.49 8.28 C 86.589 7.382 85.131 7.382 84.23 8.28 C 83.345 9.256 83.345 10.744 84.23 11.72 Z  M 92.09 13 L 92.09 7 L 94.26 7 C 94.711 6.991 95.147 7.156 95.48 7.46 C 95.818 7.754 96.009 8.182 96 8.63 C 96.005 8.897 95.928 9.158 95.78 9.38 C 95.633 9.595 95.429 9.765 95.19 9.87 C 95.48 9.966 95.734 10.147 95.92 10.39 C 96.112 10.635 96.215 10.939 96.21 11.25 C 96.22 11.717 96.022 12.164 95.67 12.47 C 95.322 12.791 94.864 12.967 94.39 12.96 L 92.09 13 Z  M 92.86 9.57 L 94.26 9.57 C 94.525 9.581 94.781 9.475 94.96 9.28 C 95.139 9.118 95.244 8.89 95.252 8.648 C 95.259 8.407 95.168 8.173 95 8 C 94.831 7.809 94.585 7.702 94.33 7.71 L 92.9 7.71 L 92.86 9.57 Z  M 92.86 12.26 L 94.41 12.26 C 94.684 12.269 94.948 12.156 95.13 11.95 C 95.306 11.767 95.406 11.524 95.41 11.27 C 95.41 10.718 94.962 10.27 94.41 10.27 L 92.89 10.27 L 92.86 12.26 Z " fill="rgb(255,255,255)" vector-effect="non-scaling-stroke" stroke-width="0.2" stroke="rgb(255,255,255)" stroke-linejoin="miter" stroke-linecap="butt" stroke-miterlimit="10"/></g></svg>
